<?xml version="1.0" standalone="no"?>
<!DOCTYPE svg PUBLIC "-//W3C//DTD SVG 20010904//EN"
 "http://www.w3.org/TR/2001/REC-SVG-20010904/DTD/svg10.dtd">
<svg version="1.0" xmlns="http://www.w3.org/2000/svg"
 width="24.000000pt" height="24.000000pt" viewBox="0 0 24.000000 24.000000"
 preserveAspectRatio="xMidYMid meet">
<g transform="translate(0.000000,24.000000) scale(0.002344,-0.002344)"
fill="#000000" stroke="none">
<path d="M3240 9426 c-59 -17 -106 -41 -156 -82 -73 -59 -457 -544 -652 -824
-167 -238 -405 -596 -501 -750 -29 -47 -75 -121 -103 -165 -46 -73 -94 -152
-365 -607 -51 -87 -97 -166 -100 -175 -4 -10 -52 -94 -108 -188 -104 -175
-168 -283 -345 -585 -57 -96 -116 -195 -132 -220 -62 -96 -71 -214 -43 -550
19 -223 42 -579 51 -785 4 -100 13 -185 24 -225 10 -36 43 -162 74 -280 89
-341 118 -404 226 -489 94 -74 194 -98 850 -206 271 -45 736 -131 767 -142 7
-3 14 -37 18 -81 3 -42 10 -120 16 -172 5 -52 14 -154 19 -226 11 -153 33
-223 105 -333 88 -133 222 -235 366 -277 80 -23 88 -24 583 -26 492 -1 502 -1
556 20 73 29 122 71 160 136 56 99 62 132 67 369 3 119 9 217 14 217 5 0 9 -4
9 -9 0 -11 136 -166 219 -250 163 -163 450 -400 591 -486 25 -15 74 -47 110
-70 199 -130 449 -227 660 -255 356 -48 1042 164 1595 493 539 319 859 706
975 1177 34 136 38 369 10 534 -44 261 -145 477 -333 711 l-64 80 82 31 c117
46 176 77 295 158 319 216 635 671 765 1101 125 413 104 817 -59 1153 -61 124
-113 198 -204 291 -89 91 -157 143 -262 199 -352 189 -883 131 -1153 -127 -90
-86 -61 -95 -220 67 -408 417 -899 662 -1453 727 -148 17 -460 20 -602 5 -214
-23 -444 -75 -622 -140 -231 -85 -524 -254 -681 -392 -44 -39 -83 -68 -86 -64
-4 3 -2 294 4 647 12 700 12 693 -45 805 -64 126 -178 216 -324 258 -72 20
-525 22 -598 2z m524 -473 c-4 -10 -10 -79 -14 -153 -6 -133 -10 -115 -14 65
l-1 60 -42 6 c-24 3 -47 1 -53 -5 -7 -7 -10 -6 -10 3 0 8 -22 -11 -50 -40 -27
-30 -48 -60 -45 -66 2 -7 -1 -12 -8 -10 -7 1 -10 -5 -9 -13 2 -8 0 -12 -4 -8
-10 11 -66 -51 -58 -64 4 -6 3 -8 -3 -5 -10 6 -47 -38 -48 -55 0 -4 -16 -24
-36 -45 -19 -21 -59 -69 -89 -108 -30 -38 -67 -87 -83 -107 -16 -20 -26 -41
-22 -47 3 -7 1 -10 -6 -9 -15 4 -81 -80 -73 -93 3 -5 -2 -9 -10 -9 -9 0 -16
-4 -16 -10 0 -5 -9 -18 -20 -28 -12 -11 -18 -27 -15 -40 2 -13 0 -20 -6 -17
-5 4 -7 11 -4 16 4 5 4 9 1 9 -2 0 -25 -28 -50 -61 -29 -39 -44 -68 -41 -79 3
-10 -2 -23 -12 -31 -15 -11 -16 -11 -5 1 18 20 15 35 -4 19 -18 -15 -134 -166
-134 -175 0 -3 4 -3 8 0 5 3 9 -1 9 -9 0 -11 -4 -12 -13 -4 -13 10 -16 7 -121
-140 -17 -23 -30 -48 -27 -55 3 -7 -6 -21 -18 -32 l-23 -19 19 23 c11 12 17
25 14 28 -3 3 -16 -12 -29 -33 -13 -21 -31 -44 -41 -51 -19 -14 -26 -38 -8
-27 6 3 7 -1 3 -10 -4 -12 -8 -13 -13 -5 -5 9 -9 9 -14 1 -4 -6 -4 -16 0 -23
4 -7 3 -8 -4 -4 -14 8 -75 -73 -68 -91 3 -7 0 -12 -6 -10 -10 2 -48 -44 -126
-152 -9 -13 -29 -38 -44 -55 -15 -17 -30 -39 -34 -48 -3 -10 -10 -18 -15 -18
-6 0 -7 -4 -4 -10 3 -5 1 -10 -5 -10 -6 0 -9 -4 -6 -9 3 -5 -1 -12 -10 -15 -8
-3 -12 -11 -8 -17 4 -8 3 -9 -5 -5 -6 4 -14 0 -18 -11 -3 -10 -13 -26 -21 -35
-8 -10 -12 -24 -9 -32 4 -9 1 -18 -5 -22 -7 -5 -8 -2 -3 6 5 8 3 11 -6 8 -8
-3 -13 -14 -12 -25 1 -11 -8 -29 -20 -39 l-22 -19 19 23 c11 12 17 25 14 28
-3 3 -18 -10 -32 -29 -28 -36 -33 -53 -14 -41 7 4 8 3 4 -5 -4 -6 -11 -9 -16
-6 -10 6 -61 -60 -53 -69 4 -3 1 -6 -5 -6 -6 0 -9 -7 -5 -17 5 -11 3 -14 -6
-8 -10 6 -11 3 -2 -13 15 -29 14 -36 -5 -18 -14 14 -20 10 -63 -47 -26 -34
-67 -91 -91 -127 -25 -36 -51 -71 -58 -79 -7 -7 -11 -20 -8 -28 3 -8 2 -12 -3
-9 -13 9 -34 -21 -25 -36 4 -7 4 -10 -1 -6 -8 7 -55 -52 -55 -68 0 -4 -7 -15
-16 -25 -12 -14 -13 -22 -4 -41 10 -21 10 -21 -3 -5 -13 15 -16 15 -27 2 -27
-33 -117 -174 -106 -168 6 4 -6 -12 -26 -34 -47 -53 -57 -73 -54 -104 2 -16
-2 -26 -10 -26 -10 0 -10 6 -3 21 8 16 6 15 -10 -4 -11 -14 -21 -29 -21 -34 0
-5 -12 -25 -27 -44 -15 -20 -22 -33 -17 -30 5 3 10 -5 10 -18 2 -24 1 -24 -13
-7 -14 17 -14 17 -9 0 3 -10 2 -16 -3 -13 -12 8 -104 -141 -96 -154 4 -6 1 -9
-7 -8 -7 2 -12 -5 -12 -14 1 -10 -2 -16 -6 -13 -11 7 -62 -74 -54 -87 4 -6 3
-9 -2 -5 -5 3 -22 -17 -39 -44 -31 -52 -47 -60 -65 -31 -10 15 -11 15 -5 -3 3
-11 11 -114 16 -230 7 -137 15 -223 25 -248 8 -22 10 -36 4 -32 -7 5 -9 -15
-6 -62 5 -64 5 -65 -4 -18 -9 50 -41 313 -60 493 -6 51 -14 101 -19 111 -12
21 71 191 201 411 47 80 119 204 161 275 279 484 597 982 847 1330 200 278
490 672 576 785 57 74 150 195 207 269 155 204 270 347 322 402 l46 49 206 0
c192 0 205 -1 197 -17z m-34 -1875 c0 -419 -2 -759 -5 -756 -3 2 -5 227 -5
499 -1 818 0 1019 5 1019 3 0 5 -343 5 -762z m1500 672 c0 -5 -5 -10 -11 -10
-6 0 -34 -17 -62 -37 -28 -21 -94 -65 -147 -97 -52 -32 -140 -87 -195 -121
-245 -151 -331 -209 -391 -261 -70 -61 -79 -63 -37 -6 116 156 258 296 393
385 76 50 205 104 314 132 101 26 136 30 136 15z m1979 -381 c145 -64 305
-206 369 -326 69 -131 75 -158 80 -387 5 -238 -8 -396 -44 -539 -30 -120 -30
-188 -3 -286 42 -150 12 -291 -82 -389 -45 -46 -116 -78 -152 -68 -13 3 -42
23 -65 45 -32 32 -53 42 -112 55 -74 17 -117 15 -182 -10 l-37 -14 -12 43 c-7
23 -12 49 -10 57 1 9 -1 11 -6 5 -4 -5 -27 -10 -51 -11 -61 -1 -97 -39 -123
-129 -26 -90 -46 -135 -60 -135 -6 0 -47 16 -92 36 -137 60 -202 77 -342 90
-53 5 -73 10 -60 15 32 12 149 10 300 -6 77 -8 141 -15 143 -15 1 0 2 10 1 23
0 12 -3 16 -6 10 -2 -7 -14 -12 -26 -12 -17 1 -18 2 -4 6 9 2 17 9 17 13 0 5
-10 6 -22 2 -27 -8 -69 -8 -83 0 -35 21 -125 27 -210 14 -153 -23 -307 -54
-367 -74 -32 -11 -58 -16 -58 -12 0 4 21 31 46 59 43 48 51 77 19 64 -9 -3
-22 0 -30 7 -13 11 -14 10 -10 -2 4 -10 -9 -19 -46 -32 -31 -12 -73 -39 -109
-73 -32 -29 -61 -49 -64 -44 -3 5 -3 11 1 14 5 2 2 2 -4 1 -7 -2 -13 1 -13 6
0 6 4 10 9 10 5 0 11 7 14 14 4 10 1 13 -9 9 -10 -4 -12 0 -7 13 4 12 3 15 -6
10 -7 -5 -9 -16 -5 -28 5 -16 3 -20 -8 -16 -18 7 -40 -26 -32 -47 6 -14 8 -13
19 2 13 17 13 17 12 -2 -1 -11 -6 -24 -12 -28 -6 -5 -4 -7 5 -4 8 2 14 11 12
20 -3 18 14 32 23 17 3 -5 -8 -30 -24 -54 -17 -24 -39 -66 -50 -92 -11 -27
-20 -44 -20 -38 -1 6 6 28 15 49 11 27 12 44 5 63 l-9 27 -1 -32 c-1 -17 -6
-35 -12 -38 -5 -4 -9 -32 -8 -63 2 -32 -3 -99 -10 -151 -16 -113 -10 -160 29
-229 53 -91 118 -121 334 -153 166 -24 533 -27 701 -5 l100 13 -110 7 c-230
15 -540 55 -663 87 -96 24 -209 84 -234 123 -16 26 -19 45 -16 121 3 79 8 97
38 153 74 139 237 212 443 199 51 -3 117 -12 147 -19 70 -16 330 -145 408
-202 l60 -44 5 44 c5 52 52 133 119 208 53 60 94 76 194 76 53 0 60 -3 94 -39
86 -90 92 -295 16 -506 -23 -62 -26 -96 -8 -69 4 5 27 38 50 73 79 114 142
279 142 377 l1 39 28 -31 c28 -30 42 -66 75 -184 14 -52 20 -58 93 -110 141
-100 194 -158 291 -320 52 -87 138 -270 173 -369 10 -30 36 -80 58 -110 86
-124 121 -226 121 -352 0 -339 -149 -624 -463 -886 -129 -108 -225 -169 -382
-243 -227 -109 -543 -208 -675 -213 -33 -1 -60 -5 -60 -9 0 -5 -67 -8 -150 -8
-83 0 -150 4 -150 9 0 5 -9 7 -19 4 -23 -6 -152 19 -274 53 -103 29 -243 88
-307 129 -25 16 -47 30 -50 30 -21 2 -119 69 -114 77 4 6 2 8 -4 5 -8 -6 -54
25 -121 80 -2 1 -1 6 2 10 4 3 16 -2 27 -12 11 -10 20 -14 20 -9 0 17 -41 37
-53 25 -13 -13 -98 59 -245 209 -79 80 -112 121 -110 135 2 15 -2 20 -19 19
-13 -1 -24 4 -25 10 0 6 -2 16 -2 21 -1 6 -5 15 -9 22 -4 6 -3 14 3 18 5 3 10
12 10 18 0 7 -5 4 -11 -6 -6 -10 -16 -14 -22 -10 -7 3 -3 -3 7 -15 11 -12 16
-22 12 -22 -9 0 -55 52 -56 63 0 4 -13 26 -30 48 -19 27 -28 50 -26 68 2 18
-2 28 -10 28 -10 0 -10 -6 -3 -21 18 -36 -28 24 -48 64 -10 19 -20 37 -24 40
-15 14 -55 107 -51 119 2 8 0 11 -5 8 -28 -18 -122 275 -138 428 -9 90 18 305
52 408 16 48 33 84 38 80 4 -4 5 -2 1 4 -8 15 58 139 82 153 10 5 13 10 9 10
-5 0 8 20 29 45 26 32 40 43 48 35 5 -5 14 -10 19 -10 5 0 1 8 -8 17 -16 16
-15 19 26 54 24 20 49 34 57 32 7 -3 12 0 10 7 -2 7 5 14 15 15 9 2 15 0 13
-4 -3 -4 0 -13 6 -21 8 -12 9 -12 4 3 -4 13 0 17 19 17 13 0 27 5 31 11 4 8
-3 9 -24 4 -18 -3 -33 -2 -37 4 -3 7 3 12 17 13 38 2 73 -3 76 -12 2 -4 21 1
43 11 40 20 99 35 99 27 0 -3 -26 -15 -59 -27 -32 -12 -65 -29 -72 -38 -11
-12 -4 -11 26 5 55 30 118 56 130 53 7 -2 7 1 0 7 -5 5 -28 13 -50 16 -31 5
-36 4 -25 -4 13 -10 13 -11 0 -7 -8 2 -24 -3 -34 -12 -14 -12 -18 -13 -14 -2
6 21 69 52 83 41 10 -8 70 -7 252 3 14 0 28 79 19 102 -3 9 -2 13 4 10 6 -3
10 -1 10 4 0 6 -7 11 -15 11 -8 0 -15 5 -15 10 0 19 -45 10 -215 -40 -266 -79
-471 -104 -618 -76 -88 17 -129 34 -87 37 18 1 20 3 7 6 -10 3 -25 -1 -33 -8
-23 -19 -186 66 -247 129 -26 28 -46 56 -45 64 2 7 -3 12 -9 11 -27 -6 -85
152 -98 263 -9 78 11 224 33 242 11 8 12 12 3 12 -11 0 -11 3 -1 15 24 29 -20
16 -70 -20 -26 -19 -50 -31 -54 -27 -4 4 -6 2 -4 -4 1 -6 -21 -37 -51 -70
l-54 -58 6 109 c10 205 95 520 174 647 13 21 23 40 23 42 0 7 89 137 123 181
18 22 44 58 58 80 119 184 344 378 592 510 112 60 271 111 391 126 117 14 297
6 404 -17 85 -19 341 -133 428 -190 74 -49 236 -212 255 -256 l14 -33 6 72
c11 141 145 358 262 426 129 74 325 95 436 46z m1487 -20 c76 -13 204 -76 271
-131 105 -87 181 -218 229 -393 25 -91 28 -115 28 -275 0 -263 -39 -434 -148
-664 -193 -405 -511 -699 -811 -751 -38 -7 -70 -12 -71 -11 -1 1 -4 27 -8 59
l-6 57 40 0 c74 0 133 34 176 102 28 43 84 75 191 107 139 41 225 163 303 431
111 377 131 488 112 633 -16 124 -66 326 -96 385 -14 27 -65 86 -122 141 -90
87 -99 93 -118 81 -12 -7 -75 -42 -141 -78 -198 -106 -267 -168 -330 -293 -57
-111 -84 -231 -110 -482 -11 -112 -21 -164 -41 -210 -52 -126 -64 -170 -64
-236 0 -48 5 -75 20 -98 25 -42 30 -41 23 4 -6 35 -5 37 10 21 9 -9 14 -23 11
-31 -3 -8 -1 -18 5 -22 7 -3 8 0 5 9 -3 8 3 23 13 33 17 17 18 21 4 33 -13 12
-14 12 -8 -3 9 -24 -10 -31 -22 -8 -12 21 -4 81 10 81 5 0 9 -6 9 -12 0 -9 4
-8 10 2 6 10 10 11 10 3 0 -7 9 -13 20 -13 28 0 25 20 -2 21 -13 1 -27 1 -31
0 -36 -6 10 104 115 275 58 96 146 174 187 165 8 -1 10 2 6 10 -5 7 -3 10 6 7
8 -3 14 -13 14 -24 0 -15 6 -18 30 -16 17 2 34 8 39 13 6 5 14 9 18 9 13 0 9
-18 -4 -23 -7 -2 -2 -2 12 0 33 6 38 12 20 24 -8 5 -28 7 -45 4 -28 -5 -28 -5
-10 9 23 18 8 20 -29 6 -17 -6 -26 -6 -26 0 0 10 4 11 80 16 58 4 100 -27 124
-91 22 -55 17 -87 -25 -175 -31 -65 -38 -84 -79 -215 -24 -77 -147 -314 -185
-357 -63 -72 -136 -95 -208 -65 -46 20 -205 191 -233 251 -39 85 -33 176 31
466 50 226 66 345 75 545 10 222 27 313 81 418 62 122 125 181 235 217 132 44
288 59 400 39z m-84 -513 c63 -19 111 -54 167 -123 56 -71 101 -175 108 -253
6 -66 -9 -184 -34 -260 -9 -30 -47 -114 -83 -188 l-65 -134 -1 124 c-1 106 -5
134 -28 202 -15 44 -36 92 -47 108 -11 15 -17 33 -13 39 4 8 3 9 -4 5 -11 -7
-17 6 -13 27 1 5 -2 6 -6 4 -5 -3 -28 13 -53 35 -25 22 -39 37 -31 33 10 -6
12 -4 7 4 -4 6 -13 11 -19 10 -7 -1 -25 4 -42 11 -16 7 -63 15 -103 18 l-73 5
6 56 c12 112 32 194 45 186 6 -4 7 1 3 11 -5 13 -3 15 7 9 9 -6 11 -4 5 4 -10
17 24 46 76 65 55 19 132 20 191 2z m-4903 -1575 c-5 -514 -11 -942 -15 -953
-5 -17 3 -18 93 -20 54 -1 115 -2 136 -1 l37 2 0 -62 0 -63 -72 7 c-40 4 -101
8 -135 8 l-63 1 0 48 c-5 956 9 1987 25 1970 2 -2 -1 -423 -6 -937z m-1664
-825 c372 -44 663 -73 820 -81 186 -9 185 -9 185 -53 0 -45 8 -58 40 -71 20
-8 13 -10 -40 -10 -92 -1 -644 26 -903 44 -121 9 -269 15 -330 14 -62 -1 -138
2 -169 6 -46 6 -58 4 -58 -6 -1 -9 -4 -8 -11 4 -6 9 -14 15 -18 12 -10 -5 -21
127 -14 170 l5 31 96 -13 c53 -6 232 -28 397 -47z m1670 -818 c-3 -24 -8 -279
-11 -568 l-6 -525 -152 3 c-83 2 -154 6 -158 10 -4 4 64 6 150 5 95 -1 149 2
137 7 -17 7 -18 9 -2 9 16 1 17 20 15 325 -2 178 0 322 3 320 4 -2 7 96 8 218
1 167 -2 224 -12 230 -8 5 -5 8 10 8 21 0 22 -4 18 -42z"/>
<path d="M7260 6897 c-30 -13 -75 -36 -100 -51 -66 -42 -239 -220 -291 -301
-85 -131 -122 -195 -116 -201 3 -4 20 4 36 16 17 11 36 18 42 14 8 -4 9 -3 5
5 -9 15 134 181 152 175 7 -2 10 1 7 7 -9 13 14 41 28 32 5 -3 7 -1 4 5 -4 5
6 22 23 35 16 14 30 30 30 36 0 6 4 11 8 11 5 0 40 31 77 70 38 38 73 66 79
63 6 -3 8 -3 4 1 -4 5 -1 14 5 21 10 10 17 9 36 -6 13 -11 29 -19 35 -19 6 1
-1 8 -16 16 -16 8 -28 18 -28 22 0 13 81 55 120 63 30 6 26 7 -25 8 -41 0 -77
-7 -115 -22z"/>
<path d="M5158 6885 c-160 -40 -357 -198 -433 -345 l-18 -34 39 32 c95 80 192
147 264 184 108 55 187 65 373 50 173 -15 225 -28 363 -92 132 -62 159 -59 87
9 -58 55 -230 147 -338 181 -91 28 -256 36 -337 15z"/>
<path d="M7411 6626 c-9 -11 -9 -15 1 -18 15 -5 -35 -78 -53 -78 -6 0 -8 -4
-5 -9 14 -22 -21 -29 -84 -15 -78 16 -200 18 -255 3 -84 -23 -222 -193 -283
-349 -39 -100 -52 -178 -52 -322 0 -79 -4 -139 -10 -143 -5 -3 -26 -8 -46 -10
l-37 -3 6 106 c3 61 2 98 -3 87 -5 -11 -9 -59 -9 -107 l-1 -87 -37 -10 c-57
-16 -193 -14 -193 2 0 8 -7 14 -15 14 -8 0 -12 -4 -9 -9 4 -5 -10 -6 -33 -2
-21 4 -63 10 -93 13 l-54 6 -12 95 c-7 52 -26 137 -44 187 -24 72 -29 97 -21
112 6 11 11 23 11 28 -1 4 -6 -2 -13 -15 -13 -22 -13 -22 -30 13 -9 19 -16 36
-16 38 2 3 -103 107 -108 107 -15 0 -81 55 -76 63 3 6 1 7 -5 3 -6 -3 -30 2
-54 13 -24 11 -86 34 -138 52 -84 28 -109 32 -210 33 l-115 1 -96 -46 c-154
-74 -280 -175 -448 -360 -113 -124 -175 -234 -192 -338 -5 -35 -7 -66 -4 -69
3 -3 30 22 60 55 45 50 162 134 169 121 1 -2 11 -24 23 -50 28 -58 73 -93 164
-125 121 -42 194 -53 357 -53 142 0 163 3 295 35 86 22 163 48 195 66 65 37
80 32 20 -6 -209 -133 -214 -136 -178 -129 19 3 65 19 101 34 77 33 180 57
275 66 56 5 89 1 179 -21 76 -19 147 -29 228 -33 l118 -5 133 67 133 67 114 6
c63 3 123 9 134 14 19 7 18 8 -4 8 -40 1 -7 26 52 40 121 27 266 148 306 256
18 48 21 78 21 223 0 174 -21 350 -43 364 -9 6 -8 10 3 18 8 5 10 10 4 10 -6
0 -17 -6 -23 -14z m-318 -307 c12 -7 50 -37 84 -68 34 -31 80 -72 102 -92 37
-32 41 -41 41 -81 0 -99 -123 -203 -278 -237 -70 -15 -181 -14 -211 2 -30 15
-39 37 -14 37 38 0 139 58 181 104 84 91 105 183 63 279 -28 64 -17 81 32 56z
m-1628 -157 c109 -104 179 -200 216 -297 17 -44 38 -93 48 -108 15 -27 15 -29
-3 -43 -24 -17 -113 -51 -185 -70 -65 -17 -161 -18 -250 -3 -91 14 -275 75
-295 98 -16 17 -14 18 46 24 134 13 250 71 304 151 58 87 64 192 19 309 -15
37 22 15 100 -61z"/>
<path d="M5226 6539 c-79 -23 -196 -75 -251 -112 -20 -14 -43 -23 -50 -21 -14
6 -24 -6 -30 -35 -2 -10 -15 -31 -30 -47 -36 -38 -85 -110 -85 -123 0 -19 18
-12 43 19 44 51 135 126 189 155 67 35 111 48 102 32 -3 -7 2 -3 10 7 9 11 18
17 22 14 3 -4 25 2 48 13 24 10 63 21 87 23 24 3 58 8 76 11 17 3 82 2 144 -4
63 -5 116 -7 119 -5 13 14 -24 40 -90 65 -93 35 -200 38 -304 8z"/>
<path d="M4316 6424 c-17 -17 -21 -28 -7 -20 23 14 33 -26 29 -107 -3 -45 -1
-73 3 -62 7 19 8 19 8 -2 1 -14 -5 -23 -14 -23 -8 0 -15 -4 -15 -10 0 -5 7
-10 15 -10 8 0 15 -6 15 -14 0 -7 13 -16 28 -18 l28 -4 2 67 c1 37 -2 78 -7
91 -5 14 -4 36 4 58 l12 35 -38 -3 c-37 -4 -45 2 -40 31 2 11 -6 8 -23 -9z"/>
<path d="M4485 6206 c-11 -8 -25 -11 -33 -8 -11 4 -13 0 -7 -17 4 -14 2 -23
-9 -27 -25 -9 -19 -23 17 -39 17 -8 24 -13 14 -10 -55 15 -67 16 -67 6 0 -6
13 -11 28 -11 38 0 52 -17 52 -62 0 -38 0 -38 -40 -38 -22 0 -40 5 -40 10 0 6
-18 10 -40 10 -22 0 -40 -4 -40 -10 0 -5 18 -10 40 -10 l40 0 0 -40 c0 -22 -4
-40 -10 -40 -5 0 -10 -18 -10 -40 0 -22 5 -40 10 -40 6 0 10 -11 10 -24 0 -21
5 -24 46 -28 l46 -3 -6 30 c-4 18 -3 25 3 17 6 -10 10 -8 14 9 4 13 9 21 11
18 3 -3 1 -19 -4 -35 -5 -16 -16 -58 -25 -94 -8 -36 -18 -76 -21 -90 -4 -14
-3 -22 1 -17 8 7 41 122 67 234 9 38 18 54 36 62 13 6 27 9 31 6 5 -2 14 8 22
23 23 44 35 54 49 37 13 -16 5 -55 -12 -55 -6 0 -8 -3 -5 -7 4 -3 1 -13 -6
-21 -8 -10 -8 -13 -1 -9 24 14 53 74 41 86 -9 9 -21 62 -29 129 -1 14 -78 14
-78 0 0 -4 -4 -8 -10 -8 -14 0 -13 57 1 66 8 4 7 9 -2 15 -8 4 -16 3 -20 -2
-8 -14 -71 -17 -75 -4 -2 6 8 18 23 27 16 10 23 18 17 18 -5 0 -19 -6 -29 -14z"/>
<path d="M7160 5211 c-41 -21 -81 -77 -104 -145 -16 -49 -24 -236 -9 -236 23
0 72 26 76 41 3 10 28 29 57 44 64 33 91 85 98 192 7 116 -32 150 -118 104z"/>
<path d="M6135 5136 c-67 -17 -147 -59 -195 -102 -45 -41 -44 -55 3 -48 63 10
130 4 144 -14 7 -9 13 -13 13 -8 0 4 15 -5 34 -22 19 -16 48 -38 65 -48 17
-10 31 -21 31 -24 0 -3 15 -7 33 -8 74 -6 344 -51 397 -67 13 -4 15 5 10 58
-6 74 -18 92 -113 174 -121 106 -275 145 -422 109z"/>
<path d="M7952 4246 c-20 -56 -150 -223 -228 -294 -73 -67 -248 -187 -359
-247 -57 -31 -69 -34 -83 -23 -15 11 -15 11 -5 -3 11 -14 2 -21 -68 -53 -44
-20 -99 -44 -122 -53 -86 -31 -279 -84 -286 -78 -2 3 -9 1 -15 -4 -6 -5 -78
-17 -161 -26 -275 -32 -495 -12 -869 77 -192 45 -400 154 -411 215 -3 16 0 20
12 16 12 -5 12 -7 1 -14 -7 -5 -8 -9 -2 -9 21 0 24 13 8 31 -16 17 -15 20 16
49 18 16 40 30 49 31 39 2 -39 17 -96 18 -74 1 -145 -20 -194 -59 -34 -27 -49
-29 -49 -8 0 4 5 7 11 6 6 -2 13 3 14 10 2 7 1 8 -2 2 -3 -7 -10 -7 -21 2 -10
7 -14 9 -10 4 4 -5 3 -17 -3 -27 -7 -15 -7 -19 3 -17 8 2 12 -5 9 -17 -11 -65
-11 -136 0 -189 7 -34 12 -67 11 -73 -2 -7 1 -13 6 -13 4 0 19 -18 31 -41 17
-30 20 -44 12 -52 -6 -6 -11 -16 -11 -22 0 -5 5 -2 11 8 10 17 29 15 29 -4 0
-6 -5 -7 -12 -3 -7 4 -8 3 -4 -5 4 -6 11 -9 16 -6 5 3 18 -7 29 -21 17 -22 19
-30 9 -43 -11 -14 -11 -14 3 -4 9 7 19 10 23 6 9 -10 -2 19 -32 81 -28 57 -31
105 -13 192 l12 59 51 -48 c119 -112 243 -187 423 -256 280 -107 648 -130 978
-62 82 17 153 28 159 25 7 -5 8 -2 3 6 -6 10 -3 12 13 8 12 -4 20 -3 17 2 -2
4 26 15 63 25 37 10 99 33 137 51 39 17 121 55 184 84 162 74 255 133 385 244
148 127 231 229 314 387 42 80 45 89 36 129 l-9 43 -13 -37z"/>
<path d="M7834 3769 c-3 -6 -1 -16 5 -22 6 -6 11 -16 11 -21 0 -6 -5 -4 -10 4
-9 13 -12 13 -23 -1 -6 -9 -17 -14 -23 -12 -6 2 -40 -34 -77 -79 -70 -88 -112
-135 -208 -233 -33 -34 -61 -71 -64 -83 -2 -12 0 -20 5 -17 4 3 11 -1 13 -7 4
-9 6 -9 6 -1 1 7 14 9 39 6 34 -5 42 -1 87 44 28 27 66 69 86 93 24 30 38 40
43 32 4 -7 4 -11 -1 -10 -4 2 -9 0 -10 -4 -2 -5 -1 -8 2 -8 3 0 19 0 36 0 62
0 139 105 139 190 0 37 -19 97 -35 113 -8 8 -11 17 -8 21 4 3 4 6 0 6 -3 0 -9
-5 -13 -11z"/>
</g>
</svg>
